<svg width="365" height="661" viewBox="0 0 365 661" fill="none" xmlns="http://www.w3.org/2000/svg">
<g clip-path="url(#clip0_0_1)">
<path d="M333.519 660.442H-0.433014V183.802C-0.433014 82.3927 58.8754 -0.109009 131.775 -0.109009H201.311C274.211 -0.109009 333.519 82.3927 333.519 183.802V660.442Z" fill="#F2F2F2"/>
<path d="M263.984 660.442H-0.433024V183.802C-0.506012 144.944 8.3394 107.069 24.8153 75.6897C25.4227 74.5382 26.0285 73.4015 26.6533 72.2773C34.6225 57.7377 44.1063 44.9328 54.7914 34.2854C55.395 33.6745 56.0009 33.0742 56.6159 32.4738C65.5569 23.8669 75.2286 16.8308 85.411 11.5259C86.0157 11.207 86.6313 10.8876 87.2469 10.5812C96.4559 6.00965 106.002 2.87814 115.709 1.24452C116.311 1.13017 116.929 1.04068 117.547 0.951196C127.006 -0.455778 136.547 -0.455778 146.006 0.951196C146.622 1.04068 147.24 1.13016 147.849 1.24575C157.554 2.87947 167.097 6.0106 176.304 10.5813C176.92 10.8877 177.535 11.2071 178.142 11.5265C188.199 16.7645 197.757 23.6956 206.602 32.165C207.217 32.7523 207.832 33.3526 208.438 33.9529C214.427 39.9001 220.053 46.5256 225.258 53.7618C229.432 59.566 233.321 65.753 236.9 72.2811C237.523 73.4016 238.128 74.5383 238.735 75.688C255.211 107.067 264.057 144.943 263.984 183.802V660.442Z" fill="#CCCCCC"/>
<path d="M356.243 458.399C354.997 457.405 353.922 456.043 353.095 454.408C352.268 452.774 351.708 450.907 351.456 448.939C351.204 446.971 351.264 444.951 351.634 443.019C352.004 441.088 352.674 439.292 353.596 437.76L341.784 283.11L363.136 284.467L368.046 436.585C369.794 438.912 370.867 442.05 371.064 445.404C371.26 448.758 370.564 452.096 369.11 454.785C367.655 457.474 365.542 459.327 363.17 459.993C360.799 460.659 358.334 460.092 356.243 458.399V458.399Z" fill="#FFB8B8"/>
<path d="M340.428 344.559L338.594 286.087C337.203 275.096 341.727 264.705 348.683 263.007C355.642 261.314 362.436 268.938 363.833 280.01L370.725 334.646L340.428 344.559Z" fill="#E67563"/>
<path d="M242.483 447.258C250.568 447.258 257.122 438.141 257.122 426.895C257.122 415.648 250.568 406.531 242.483 406.531C234.398 406.531 227.844 415.648 227.844 426.895C227.844 438.141 234.398 447.258 242.483 447.258Z" fill="#E67563"/>
<path d="M306.162 646.166H294.945L289.608 585.98L306.164 585.982L306.162 646.166Z" fill="#FFB8B8"/>
<path d="M286.932 641.707H308.565V660.654H273.312C273.312 658.166 273.664 655.702 274.349 653.403C275.033 651.105 276.036 649.016 277.301 647.256C278.566 645.497 280.067 644.101 281.72 643.149C283.372 642.197 285.144 641.707 286.932 641.707V641.707Z" fill="#2F2E41"/>
<path d="M361.973 646.166H350.756L345.419 585.98L361.975 585.982L361.973 646.166Z" fill="#FFB8B8"/>
<path d="M342.744 641.707H364.376V660.654H329.123C329.123 658.166 329.475 655.702 330.16 653.403C330.844 651.105 331.848 649.016 333.112 647.256C334.377 645.497 335.879 644.101 337.531 643.149C339.184 642.197 340.955 641.707 342.744 641.707V641.707Z" fill="#2F2E41"/>
<path d="M249.892 430.929C249.085 429.275 248.549 427.395 248.32 425.421C248.092 423.448 248.178 421.429 248.571 419.506C248.965 417.584 249.656 415.805 250.598 414.294C251.539 412.784 252.707 411.579 254.019 410.765L292.15 264.569L310.912 278.813L267.375 418.522C268.213 421.68 268.189 425.154 267.308 428.289C266.427 431.423 264.75 433.999 262.595 435.528C260.44 437.057 257.956 437.434 255.615 436.586C253.274 435.738 251.238 433.725 249.892 430.929V430.929Z" fill="#FFB8B8"/>
<path d="M322.18 237.49C334.59 237.49 344.651 223.495 344.651 206.23C344.651 188.966 334.59 174.971 322.18 174.971C309.769 174.971 299.708 188.966 299.708 206.23C299.708 223.495 309.769 237.49 322.18 237.49Z" fill="#FFB8B8"/>
<path d="M356.1 423.227H288.351L288.433 422.494C288.555 421.398 300.507 312.48 291.692 276.847C290.807 273.345 290.885 269.512 291.91 266.086C292.935 262.659 294.836 259.881 297.245 258.286H297.245C309.845 250.032 334.033 239.868 354.447 264.534C357.451 268.224 359.797 272.835 361.299 278.003C362.801 283.171 363.418 288.754 363.102 294.311L356.1 423.227Z" fill="#E67563"/>
<path d="M301.363 328.576L270.862 319.968L285.16 272.839C286.015 268.274 288.137 264.368 291.061 261.977C293.984 259.586 297.469 258.905 300.753 260.085C304.037 261.264 306.85 264.206 308.576 268.267C310.302 272.328 310.799 277.175 309.96 281.745L301.363 328.576Z" fill="#E67563"/>
<path d="M353.846 416.227C364.747 473.98 365.936 547.408 362.995 627.502L348.356 624.956L321.823 472.228L307.184 627.502L290.715 626.229C285.795 542.19 281.005 470.045 288.885 422.591L353.846 416.227Z" fill="#2F2E41"/>
<path d="M336.986 230.389C332.794 236.601 325.009 233.266 324.462 224.78C324.419 224.121 324.423 223.458 324.472 222.8C324.754 219.041 326.315 215.628 325.941 211.659C325.856 210.671 325.592 209.729 325.172 208.924C321.832 202.701 313.99 211.707 310.837 206.074C308.903 202.619 311.176 197.181 309.693 193.32C307.734 188.225 301.935 190.738 298.298 187.948C294.251 184.843 294.493 176.206 297.157 170.953C300.406 164.547 306.101 161.128 311.726 160.636C317.351 160.143 322.937 162.258 328.188 165.105C334.154 168.339 340.071 172.809 343.742 180.107C348.208 188.982 348.637 200.914 346.404 211.292C345.046 217.604 340.41 225.316 336.986 230.389Z" fill="#2F2E41"/>
<path d="M191.247 522.35H72.3046C70.7382 522.362 69.2323 521.509 68.1174 519.978C67.0025 518.447 66.3696 516.364 66.3575 514.185V144.875C66.3696 142.696 67.0025 140.613 68.1174 139.082C69.2323 137.552 70.7382 136.699 72.3046 136.71H191.247C192.813 136.699 194.319 137.552 195.434 139.082C196.549 140.613 197.182 142.696 197.194 144.875V514.185C197.182 516.364 196.549 518.447 195.434 519.978C194.319 521.509 192.813 522.362 191.247 522.35V522.35Z" fill="white"/>
<path d="M197.194 256.207H66.3574V258.753H197.194V256.207Z" fill="#CCCCCC"/>
<path d="M197.651 401.44H66.8149V403.985H197.651V401.44Z" fill="#CCCCCC"/>
<path d="M109.36 136.71H107.53V523.623H109.36V136.71Z" fill="#CCCCCC"/>
<path d="M155.106 136.71H153.277V523.623H155.106V136.71Z" fill="#CCCCCC"/>
</g>
<defs>
<clipPath id="clip0_0_1">
<rect width="365" height="661" fill="white"/>
</clipPath>
</defs>
</svg>
